<svg width="311.8262268066406px" height="120.81007995605468px" xmlns="http://www.w3.org/2000/svg" viewBox="94.0868865966797 14.59496002197266 311.8262268066406 120.81007995605468" style="background: rgba(0, 0, 0, 0);" preserveAspectRatio="xMidYMid"><defs><linearGradient id="editing-sticker-gradient" x1="0.5" y1="0.2" x2="0.5" y2="0.8"><stop offset="0" stop-color="#fd9"></stop><stop offset="1" stop-color="#9df"></stop></linearGradient><filter id="editing-sticker" x="-100%" y="-100%" width="300%" height="300%"><feMorphology operator="erode" radius="1" in="SourceAlpha" result="alpha-erode"></feMorphology><feConvolveMatrix order="3,3" divisor="1" kernelMatrix="0 1 0 1 1 1 0 1 0" in="alpha-erode" result="alpha-round"></feConvolveMatrix><feMorphology operator="dilate" radius="3.5" in="alpha-round" result="dilate-shadow"></feMorphology><feGaussianBlur in="dilate-shadow" stdDeviation="1.5" result="shadow"></feGaussianBlur><feFlood flood-color="#fff" result="flood-sticker"></feFlood><feComposite operator="in" in="flood-sticker" in2="alpha-round" result="comp-sticker"></feComposite><feMorphology operator="dilate" radius="3" in="comp-sticker" result="morph-sticker"></feMorphology><feConvolveMatrix order="3,3" divisor="1" kernelMatrix="0 1 0 1 1 1 0 1 0" in="morph-sticker" result="sticker"></feConvolveMatrix><feMerge><feMergeNode in="shadow"></feMergeNode><feMergeNode in="sticker"></feMergeNode><feMergeNode in="SourceGraphic"></feMergeNode></feMerge></filter></defs><g filter="url(#editing-sticker)"><g transform="translate(142.58031129837036, 104.79000091552734)"><path d="M3.87-1.92L3.87-1.92L3.87-1.92Q2.37-3.58 1.70-6.21L1.70-6.21L1.70-6.21Q1.02-8.83 1.02-13.12L1.02-13.12L1.02-13.12Q1.02-17.41 2.50-21.31L2.50-21.31L2.50-21.31Q3.97-25.22 6.66-28.03L6.66-28.03L6.66-28.03Q12.16-33.92 21.25-33.92L21.25-33.92L21.25-33.92Q24.51-33.92 26.88-32.83L26.88-32.83L37.82-33.92L33.09-8.96L33.09-8.96Q32.90-8.19 32.90-6.78L32.90-6.78L32.90-6.78Q32.90-5.38 33.76-4.48L33.76-4.48L33.76-4.48Q34.62-3.58 35.90-3.46L35.90-3.46L35.90-3.46Q35.26-1.28 32.93 0L32.93 0L32.93 0Q30.59 1.28 27.97 1.28L27.97 1.28L27.97 1.28Q25.34 1.28 23.58 0.29L23.58 0.29L23.58 0.29Q21.82-0.70 21.31-2.37L21.31-2.37L21.31-2.37Q20.29-0.77 18.11 0.26L18.11 0.26L18.11 0.26Q15.94 1.28 13.02 1.28L13.02 1.28L13.02 1.28Q10.11 1.28 7.74 0.51L7.74 0.51L7.74 0.51Q5.38-0.26 3.87-1.92ZM17.38-27.90L17.38-27.90L17.38-27.90Q16.64-26.75 16-24.80L16-24.80L16-24.80Q15.36-22.85 14.30-17.63L14.30-17.63L14.30-17.63Q13.25-12.42 13.25-8.70L13.25-8.70L13.25-8.70Q13.25-4.99 13.82-3.90L13.82-3.90L13.82-3.90Q14.40-2.82 15.42-2.82L15.42-2.82L15.42-2.82Q17.47-2.82 18.98-4.77L18.98-4.77L18.98-4.77Q20.48-6.72 21.06-10.18L21.06-10.18L24.45-28.93L24.45-28.93Q23.10-30.08 21.54-30.08L21.54-30.08L21.54-30.08Q19.97-30.08 19.04-29.57L19.04-29.57L19.04-29.57Q18.11-29.06 17.38-27.90ZM61.31-17.98L61.31-17.98L61.31-17.98Q63.62-22.08 63.62-26.24L63.62-26.24L63.62-26.24Q63.62-28.99 61.63-28.99L61.63-28.99L61.63-28.99Q60.10-28.99 58.50-26.37L58.50-26.37L58.50-26.37Q56.83-23.74 56.32-20.35L56.32-20.35L52.99 0L39.74 1.28L46.27-32.64L56.83-33.92L55.68-27.46L55.68-27.46Q58.82-33.92 65.86-33.92L65.86-33.92L65.86-33.92Q69.57-33.92 71.58-32L71.58-32L71.58-32Q73.60-30.08 73.60-26.14L73.60-26.14L73.60-26.14Q73.60-22.21 71.01-19.71L71.01-19.71L71.01-19.71Q68.42-17.22 64-17.22L64-17.22L64-17.22Q62.08-17.22 61.31-17.98ZM94.98-7.23L94.98-7.23L94.98-7.23Q91.65-3.78 85.57-3.78L85.57-3.78L85.57-3.78Q77.95-3.78 76.35-9.34L76.35-9.34L76.35-9.34Q75.84-11.01 75.84-12.86L75.84-12.86L75.84-12.86Q75.84-14.72 76.22-16.64L76.22-16.64L79.23-32.64L92.22-33.92L88.70-15.30L88.70-15.30Q88.58-14.46 88.38-13.57L88.38-13.57L88.38-13.57Q88.19-12.67 88.19-11.74L88.19-11.74L88.19-11.74Q88.19-10.82 88.51-10.21L88.51-10.21L88.51-10.21Q88.83-9.60 89.28-9.22L89.28-9.22L89.28-9.22Q90.05-8.70 91.42-8.70L91.42-8.70L91.42-8.70Q92.80-8.70 93.98-10.37L93.98-10.37L93.98-10.37Q95.17-12.03 95.74-14.91L95.74-14.91L99.26-32.64L111.87-33.92L107.07-8.77L107.07-8.77Q104.70 3.52 99.84 8.38L99.84 8.38L99.84 8.38Q97.34 10.88 94.11 11.87L94.11 11.87L94.11 11.87Q90.88 12.86 86.72 12.86L86.72 12.86L86.72 12.86Q80 12.86 76.16 10.75L76.16 10.75L76.16 10.75Q72.32 8.64 72.32 5.12L72.32 5.12L72.32 5.12Q72.32 2.50 74.30 0.99L74.30 0.99L74.30 0.99Q76.29-0.51 79.36-0.51L79.36-0.51L79.36-0.51Q82.05-0.51 84.10 0.64L84.10 0.64L84.10 0.64Q85.31 1.34 85.89 2.24L85.89 2.24L85.89 2.24Q84.42 3.52 84.42 5.63L84.42 5.63L84.42 5.63Q84.42 8.45 86.98 8.45L86.98 8.45L86.98 8.45Q91.20 8.45 93.63-1.28L93.63-1.28L93.63-1.28Q94.34-4.16 94.98-7.23ZM116.96-1.92L116.96-1.92L116.96-1.92Q115.46-3.58 114.78-6.21L114.78-6.21L114.78-6.21Q114.11-8.83 114.11-13.12L114.11-13.12L114.11-13.12Q114.11-17.41 115.58-21.31L115.58-21.31L115.58-21.31Q117.06-25.22 119.74-28.03L119.74-28.03L119.74-28.03Q125.25-33.92 134.34-33.92L134.34-33.92L134.34-33.92Q137.60-33.92 139.97-32.83L139.97-32.83L150.91-33.92L146.18-8.96L146.18-8.96Q145.98-8.19 145.98-6.78L145.98-6.78L145.98-6.78Q145.98-5.38 146.85-4.48L146.85-4.48L146.85-4.48Q147.71-3.58 148.99-3.46L148.99-3.46L148.99-3.46Q148.35-1.28 146.02 0L146.02 0L146.02 0Q143.68 1.28 141.06 1.28L141.06 1.28L141.06 1.28Q138.43 1.28 136.67 0.29L136.67 0.29L136.67 0.29Q134.91-0.70 134.40-2.37L134.40-2.37L134.40-2.37Q133.38-0.77 131.20 0.26L131.20 0.26L131.20 0.26Q129.02 1.28 126.11 1.28L126.11 1.28L126.11 1.28Q123.20 1.28 120.83 0.51L120.83 0.51L120.83 0.51Q118.46-0.26 116.96-1.92ZM130.46-27.90L130.46-27.90L130.46-27.90Q129.73-26.75 129.09-24.80L129.09-24.80L129.09-24.80Q128.45-22.85 127.39-17.63L127.39-17.63L127.39-17.63Q126.34-12.42 126.34-8.70L126.34-8.70L126.34-8.70Q126.34-4.99 126.91-3.90L126.91-3.90L126.91-3.90Q127.49-2.82 128.51-2.82L128.51-2.82L128.51-2.82Q130.56-2.82 132.06-4.77L132.06-4.77L132.06-4.77Q133.57-6.72 134.14-10.18L134.14-10.18L137.54-28.93L137.54-28.93Q136.19-30.08 134.62-30.08L134.62-30.08L134.62-30.08Q133.06-30.08 132.13-29.57L132.13-29.57L132.13-29.57Q131.20-29.06 130.46-27.90ZM181.44 1.28L181.44 1.28L181.44 1.28Q173.70 1.28 173.70-4.74L173.70-4.74L173.70-4.74Q173.76-6.40 174.27-9.22L174.27-9.22L175.42-15.10L175.42-15.10Q177.15-23.42 177.15-25.28L177.15-25.28L177.15-25.28Q177.15-28.99 174.98-28.99L174.98-28.99L174.98-28.99Q171.33-28.99 169.41-19.46L169.41-19.46L165.63 0L152.77 1.28L159.42-32.70L169.92-33.92L168.90-27.65L168.90-27.65Q171.90-33.92 181.12-33.92L181.12-33.92L181.12-33.92Q185.60-33.92 187.49-32.03L187.49-32.03L187.49-32.03Q189.38-30.14 189.38-25.92L189.38-25.92L189.38-25.92Q189.38-21.95 187.33-12.67L187.33-12.67L187.33-12.67Q186.37-8.51 186.37-6.94L186.37-6.94L186.37-6.94Q186.37-5.38 187.23-4.48L187.23-4.48L187.23-4.48Q188.10-3.58 189.38-3.46L189.38-3.46L189.38-3.46Q188.74-1.28 186.53 0L186.53 0L186.53 0Q184.32 1.28 181.44 1.28ZM209.86-3.52L209.86-3.52L209.86-3.52Q207.87 1.28 201.54 1.28L201.54 1.28L201.54 1.28Q198.27 1.28 196.22-0.96L196.22-0.96L196.22-0.96Q194.50-2.94 194.50-4.93L194.50-4.93L194.50-4.93Q194.50-10.11 196.86-20.22L196.86-20.22L199.23-32.64L212.22-33.92L208.32-13.70L208.32-13.70Q207.23-8.96 207.23-7.30L207.23-7.30L207.23-7.30Q207.23-3.65 209.86-3.52ZM200.38-41.54L200.38-41.54L200.38-41.54Q200.38-44.03 202.46-45.38L202.46-45.38L202.46-45.38Q204.54-46.72 207.55-46.72L207.55-46.72L207.55-46.72Q210.56-46.72 212.38-45.38L212.38-45.38L212.38-45.38Q214.21-44.03 214.21-41.54L214.21-41.54L214.21-41.54Q214.21-39.04 212.19-37.76L212.19-37.76L212.19-37.76Q210.18-36.48 207.17-36.48L207.17-36.48L207.17-36.48Q204.16-36.48 202.27-37.76L202.27-37.76L202.27-37.76Q200.38-39.04 200.38-41.54Z" fill="url(#editing-sticker-gradient)" stroke="#000" stroke-width="2.5"></path></g></g><style>text {
  font-size: 64px;
  font-family: Arial Black;
  dominant-baseline: central;
  text-anchor: middle;
}</style></svg>