<svg width="767.086279296875px" height="397.31492919921874px" xmlns="http://www.w3.org/2000/svg" viewBox="-133.5431396484375 -123.65746459960937 767.086279296875 397.31492919921874" style="background:#f2eddb" preserveAspectRatio="xMidYMid"><defs><filter id="editing-vintage" x="-100%" y="-100%" width="300%" height="300%"><feConvolveMatrix in="SourceGraphic" result="extrude" order="9,9" divisor="1" kernelMatrix="1,0,0,0,0,0,0,0,0,0,1,0,0,0,0,0,0,0,0,0,1,0,0,0,0,0,0,0,0,0,1,0,0,0,0,0,0,0,0,0,1,0,0,0,0,0,0,0,0,0,1,0,0,0,0,0,0,0,0,0,1,0,0,0,0,0,0,0,0,0,1,0,0,0,0,0,0,0,0,0,1"> </feConvolveMatrix><feFlood flood-color="#900" result="flood-extrude"></feFlood><feComposite operator="in" in="flood-extrude" in2="extrude" result="extrude-color"></feComposite><feOffset dx="5" dy="5" in="extrude-color" result="extrude-offset"></feOffset><feColorMatrix in="SourceGraphic" result="stroke" type="matrix" values="0 0 0 0 0 0 0 0 0 0 0 0 0 0 0 0 1 0 0 0 "></feColorMatrix><feColorMatrix in="SourceGraphic" result="fill" type="matrix" values="0 0 0 0 0 0 0 0 0 0 0 0 0 0 0 1 0 0 1 0 "></feColorMatrix><feConvolveMatrix in="stroke" result="inner-shadow" order="5,5" divisor="1" kernelMatrix="1 0 0 0 0 0 1 0 0 0 0 0 1 0 0 0 0 0 1 0 0 0 0 0 1 "></feConvolveMatrix><feOffset dx="1" dy="1" in="inner-shadow" result="offset"></feOffset><feComposite operator="in" in="offset" in2="SourceAlpha" result="comp"></feComposite><feFlood flood-color="#000" result="flood3"></feFlood><feComposite operator="in" in="flood3" in2="comp" result="comp2"></feComposite><feColorMatrix in="comp2" result="comp3" type="matrix" values="1 0 0 0 0 0 1 0 0 0 0 0 1 0 0 0 0 0 0.5 0 "></feColorMatrix><feFlood flood-color="#f00" result="flood1"></feFlood><feComposite operator="in" in="flood1" in2="fill" result="fill2"></feComposite><feFlood flood-color="#fff" result="flood2"></feFlood><feComposite operator="in" in="flood2" in2="stroke" result="stroke2"></feComposite><feMerge result="obj"><feMergeNode in="extrude-offset"></feMergeNode><feMergeNode in="fill2"></feMergeNode><feMergeNode in="comp3"></feMergeNode></feMerge><feConvolveMatrix in="SourceAlpha" result="shadow" order="9,9" divisor="1" kernelMatrix="1,0,0,0,0,0,0,0,0,0,1,0,0,0,0,0,0,0,0,0,1,0,0,0,0,0,0,0,0,0,1,0,0,0,0,0,0,0,0,0,1,0,0,0,0,0,0,0,0,0,1,0,0,0,0,0,0,0,0,0,1,0,0,0,0,0,0,0,0,0,1,0,0,0,0,0,0,0,0,0,1"></feConvolveMatrix><feOffset dx="15" dy="15" in="shadow" result="shadow-offset"></feOffset><feFlood flood-color="#444" result="flood-shadow"></feFlood><feComposite operator="in" in="flood-shadow" in2="shadow-offset" result="shadow-color"></feComposite><feMerge><feMergeNode in="shadow-color"></feMergeNode><feMergeNode in="obj"></feMergeNode></feMerge></filter></defs><g transform="translate(-9,-9)"><g filter="url(#editing-vintage)"><g transform="translate(-18.458449602127075, 171.29000091552734)"><path d="M24.02 1.17L24.02 1.17Q12.60 1.17 5.57-5.96L5.57-5.96L5.57-5.96Q-2.64-14.36-2.64-30.96L-2.64-30.96L-2.64-30.96Q-2.64-37.99-1.22-45.80L-1.22-45.80L-1.22-45.80Q0.20-53.61 2.93-61.23L2.93-61.23L2.93-61.23Q9.18-78.42 20.02-88.96L20.02-88.96L20.02-88.96Q32.52-100.98 48.83-100.98L48.83-100.98L48.83-100.98Q56.93-100.98 60.99-98.19L60.99-98.19L60.99-98.19Q65.04-95.41 65.04-90.82L65.04-90.82L65.04-89.36L67.19-100L96.00-100L81.64-32.03L81.64-32.03Q80.76-29.10 80.76-25.59L80.76-25.59L80.76-25.59Q80.76-16.99 88.96-16.99L88.96-16.99L88.96-16.99Q94.43-16.99 98.93-22.56L98.93-22.56L98.93-22.56Q102.73-27.25 105.18-35.84L105.18-35.84L113.57-35.84L113.57-35.84Q108.20-20.61 100.59-11.72L100.59-11.72L100.59-11.72Q94.14-4.39 86.04-1.17L86.04-1.17L86.04-1.17Q80.08 1.17 73.44 1.17L73.44 1.17L73.44 1.17Q64.94 1.17 59.91-3.47L59.91-3.47L59.91-3.47Q54.88-8.11 53.81-17.19L53.81-17.19L53.81-17.19Q48.14-9.18 41.89-4.69L41.89-4.69L41.89-4.69Q33.89 1.17 24.02 1.17L24.02 1.17ZM37.01-18.16L37.01-18.16Q39.26-18.16 41.75-19.34L41.75-19.34L41.75-19.34Q44.24-20.51 46.58-22.66L46.58-22.66L46.58-22.66Q51.86-27.73 53.61-35.84L53.61-35.84L63.18-80.96L63.18-80.96Q63.18-81.93 62.74-83.25L62.74-83.25L62.74-83.25Q62.30-84.57 61.52-85.74L61.52-85.74L61.52-85.74Q59.18-88.57 54.98-88.57L54.98-88.57L54.98-88.57Q50.98-88.57 47.22-85.94L47.22-85.94L47.22-85.94Q43.46-83.30 40.14-78.61L40.14-78.61L40.14-78.61Q34.28-70.12 30.47-56.45L30.47-56.45L30.47-56.45Q28.71-50.39 27.83-44.48L27.83-44.48L27.83-44.48Q26.95-38.57 26.95-33.79L26.95-33.79L26.95-33.79Q26.95-23.83 30.66-20.31L30.66-20.31L30.66-20.31Q31.93-18.95 33.50-18.55L33.50-18.55L33.50-18.55Q35.06-18.16 37.01-18.16L37.01-18.16ZM97.56 0L118.75-100L147.56-100L145.02-87.60L145.02-87.60Q151.86-93.65 156.15-96.19L156.15-96.19L156.15-96.19Q162.79-100 169.14-100L169.14-100L169.14-100Q175.59-100 179.49-95.41L179.49-95.41L179.49-95.41Q181.25-93.36 182.13-90.67L182.13-90.67L182.13-90.67Q183.01-87.99 183.01-84.96L183.01-84.96L183.01-84.96Q183.01-82.23 182.13-79.69L182.13-79.69L182.13-79.69Q181.25-77.15 179.49-75.10L179.49-75.10L179.49-75.10Q177.54-72.95 174.76-71.68L174.76-71.68L174.76-71.68Q171.97-70.41 168.55-70.41L168.55-70.41L168.55-70.41Q165.92-70.41 164.36-71.29L164.36-71.29L164.36-71.29Q162.79-72.17 161.91-73.83L161.91-73.83L161.91-73.83Q161.13-75.49 160.84-77.05L160.84-77.05L160.84-77.05Q159.96-81.25 159.08-82.62L159.08-82.62L159.08-82.62Q158.40-83.59 156.93-83.59L156.93-83.59L156.93-83.59Q152.73-83.59 149.80-81.84L149.80-81.84L149.80-81.84Q146.88-80.08 142.38-75.98L142.38-75.98L126.37 0L97.56 0ZM211.52 50L211.52 50Q206.84 50 202.78 48.78L202.78 48.78L202.78 48.78Q198.73 47.56 195.80 45.12L195.80 45.12L195.80 45.12Q192.68 42.68 190.92 39.01L190.92 39.01L190.92 39.01Q189.16 35.35 189.16 30.57L189.16 30.57L189.16 30.57Q189.16 19.24 199.80 11.13L199.80 11.13L199.80 11.13Q207.81 5.18 221.78 0.78L221.78 0.78L224.22-9.96L224.22-9.96Q218.36-3.52 211.52-0.88L211.52-0.88L211.52-0.88Q206.25 1.17 200.20 1.17L200.20 1.17L200.20 1.17Q190.63 1.17 185.06-4.49L185.06-4.49L185.06-4.49Q178.81-10.74 178.81-22.75L178.81-22.75L178.81-22.75Q178.81-28.42 180.37-35.84L180.37-35.84L193.95-100L222.75-100L208.40-32.03L208.40-32.03Q207.81-29.59 207.81-26.95L207.81-26.95L207.81-26.95Q207.81-23.14 209.08-20.90L209.08-20.90L209.08-20.90Q210.55-18.16 213.77-18.16L213.77-18.16L213.77-18.16Q219.04-18.16 223.24-22.85L223.24-22.85L223.24-22.85Q226.86-26.86 229.39-34.57L229.39-34.57L243.36-100L272.17-100L252.34-7.23L252.34-7.23Q261.82-10.35 267.48-16.60L267.48-16.60L267.48-16.60Q273.63-23.34 277.54-35.84L277.54-35.84L285.94-35.84L285.94-35.84Q280.57-18.07 269.92-8.40L269.92-8.40L269.92-8.40Q262.11-1.37 250.59 1.56L250.59 1.56L247.56 16.02L247.56 16.02Q243.75 35.16 232.32 43.75L232.32 43.75L232.32 43.75Q224.02 50 211.52 50L211.52 50ZM206.93 34.38L206.93 34.38Q209.96 34.38 213.38 29.98L213.38 29.98L213.38 29.98Q216.70 25.68 218.55 16.60L218.55 16.60L219.73 10.84L219.73 10.84Q210.64 14.26 206.15 17.77L206.15 17.77L206.15 17.77Q200.20 22.27 200.20 27.83L200.20 27.83L200.20 27.83Q200.20 30.47 201.86 32.23L201.86 32.23L201.86 32.23Q203.71 34.38 206.93 34.38L206.93 34.38ZM301.56 1.17L301.56 1.17Q290.14 1.17 283.11-5.96L283.11-5.96L283.11-5.96Q274.90-14.36 274.90-30.96L274.90-30.96L274.90-30.96Q274.90-37.99 276.32-45.80L276.32-45.80L276.32-45.80Q277.73-53.61 280.47-61.23L280.47-61.23L280.47-61.23Q286.72-78.42 297.56-88.96L297.56-88.96L297.56-88.96Q310.06-100.98 326.37-100.98L326.37-100.98L326.37-100.98Q334.47-100.98 338.53-98.19L338.53-98.19L338.53-98.19Q342.58-95.41 342.58-90.82L342.58-90.82L342.58-89.36L344.73-100L373.54-100L359.18-32.03L359.18-32.03Q358.30-29.10 358.30-25.59L358.30-25.59L358.30-25.59Q358.30-16.99 366.50-16.99L366.50-16.99L366.50-16.99Q371.97-16.99 376.46-22.56L376.46-22.56L376.46-22.56Q380.27-27.25 382.71-35.84L382.71-35.84L391.11-35.84L391.11-35.84Q385.74-20.61 378.13-11.72L378.13-11.72L378.13-11.72Q371.68-4.39 363.57-1.17L363.57-1.17L363.57-1.17Q357.62 1.17 350.98 1.17L350.98 1.17L350.98 1.17Q342.48 1.17 337.45-3.47L337.45-3.47L337.45-3.47Q332.42-8.11 331.35-17.19L331.35-17.19L331.35-17.19Q325.68-9.18 319.43-4.69L319.43-4.69L319.43-4.69Q311.43 1.17 301.56 1.17L301.56 1.17ZM314.55-18.16L314.55-18.16Q316.80-18.16 319.29-19.34L319.29-19.34L319.29-19.34Q321.78-20.51 324.12-22.66L324.12-22.66L324.12-22.66Q329.39-27.73 331.15-35.84L331.15-35.84L340.72-80.96L340.72-80.96Q340.72-81.93 340.28-83.25L340.28-83.25L340.28-83.25Q339.84-84.57 339.06-85.74L339.06-85.74L339.06-85.74Q336.72-88.57 332.52-88.57L332.52-88.57L332.52-88.57Q328.52-88.57 324.76-85.94L324.76-85.94L324.76-85.94Q321.00-83.30 317.68-78.61L317.68-78.61L317.68-78.61Q311.82-70.12 308.01-56.45L308.01-56.45L308.01-56.45Q306.25-50.39 305.37-44.48L305.37-44.48L305.37-44.48Q304.49-38.57 304.49-33.79L304.49-33.79L304.49-33.79Q304.49-23.83 308.20-20.31L308.20-20.31L308.20-20.31Q309.47-18.95 311.04-18.55L311.04-18.55L311.04-18.55Q312.60-18.16 314.55-18.16L314.55-18.16ZM454.88 1.17L454.88 1.17Q442.48 1.17 436.52-5.86L436.52-5.86L436.52-5.86Q431.35-11.91 431.35-21.39L431.35-21.39L431.35-21.39Q431.35-25.88 432.47-31.84L432.47-31.84L432.47-31.84Q433.59-37.79 435.84-47.17L435.84-47.17L435.84-47.17Q438.09-56.74 439.21-62.45L439.21-62.45L439.21-62.45Q440.33-68.16 440.33-72.36L440.33-72.36L440.33-72.36Q440.33-82.62 433.11-82.62L433.11-82.62L433.11-82.62Q428.03-82.62 423.73-77.25L423.73-77.25L423.73-77.25Q420.12-72.66 417.48-64.16L417.48-64.16L403.91 0L375.10 0L396.29-100L425.10-100L422.95-89.65L422.95-89.65Q428.81-96.19 435.55-98.83L435.55-98.83L435.55-98.83Q440.53-100.78 446.29-100.78L446.29-100.78L446.29-100.78Q456.45-100.78 462.30-95.51L462.30-95.51L462.30-95.51Q468.55-89.75 468.55-78.22L468.55-78.22L468.55-78.22Q468.55-71.29 466.02-60.16L466.02-60.16L466.02-60.16Q465.33-56.93 463.77-50.49L463.77-50.49L463.77-50.49Q460.94-39.65 459.67-33.20L459.67-33.20L459.67-33.20Q458.89-29.10 458.89-26.56L458.89-26.56L458.89-26.56Q458.89-22.56 460.69-20.36L460.69-20.36L460.69-20.36Q462.50-18.16 466.89-18.16L466.89-18.16L466.89-18.16Q472.85-18.16 476.95-23.05L476.95-23.05L476.95-23.05Q480.08-26.76 483.69-35.84L483.69-35.84L492.09-35.84L492.09-35.84Q484.67-13.87 473.34-5.08L473.34-5.08L473.34-5.08Q465.33 1.17 454.88 1.17L454.88 1.17ZM517.09-110.84L517.09-110.84Q513.87-110.84 510.94-112.06L510.94-112.06L510.94-112.06Q508.01-113.28 505.86-115.43L505.86-115.43L505.86-115.43Q503.71-117.48 502.49-120.41L502.49-120.41L502.49-120.41Q501.27-123.34 501.27-126.56L501.27-126.56L501.27-126.56Q501.27-129.79 502.49-132.71L502.49-132.71L502.49-132.71Q503.71-135.64 505.86-137.89L505.86-137.89L505.86-137.89Q508.01-140.14 510.94-141.36L510.94-141.36L510.94-141.36Q513.87-142.58 517.09-142.58L517.09-142.58L517.09-142.58Q520.31-142.58 523.24-141.36L523.24-141.36L523.24-141.36Q526.17-140.14 528.42-137.89L528.42-137.89L528.42-137.89Q530.66-135.64 531.88-132.71L531.88-132.71L531.88-132.71Q533.11-129.79 533.11-126.56L533.11-126.56L533.11-126.56Q533.11-123.34 531.88-120.41L531.88-120.41L531.88-120.41Q530.66-117.48 528.42-115.43L528.42-115.43L528.42-115.43Q526.17-113.28 523.24-112.06L523.24-112.06L523.24-112.06Q520.31-110.84 517.09-110.84L517.09-110.84ZM503.52 1.17L503.52 1.17Q493.95 1.17 488.38-4.49L488.38-4.49L488.38-4.49Q482.13-10.74 482.13-22.75L482.13-22.75L482.13-22.75Q482.13-28.42 483.69-35.84L483.69-35.84L497.27-100L526.07-100L511.72-32.03L511.72-32.03Q510.94-29.49 510.94-25.59L510.94-25.59L510.94-25.59Q510.94-21.48 512.84-19.82L512.84-19.82L512.84-19.82Q514.75-18.16 519.04-18.16L519.04-18.16L519.04-18.16Q521.97-18.16 524.76-19.48L524.76-19.48L524.76-19.48Q527.54-20.80 529.88-23.14L529.88-23.14L529.88-23.14Q534.67-27.93 537.11-35.84L537.11-35.84L545.51-35.84L545.51-35.84Q540.14-20.70 532.03-11.72L532.03-11.72L532.03-11.72Q525.20-4.39 516.60-1.17L516.60-1.17L516.60-1.17Q510.35 1.17 503.52 1.17L503.52 1.17Z" fill="#f00" stroke="#0f0" stroke-width="1.8"></path></g></g><g><g transform="translate(-18.544387102127075, 171.29000091552734)"><path d="M24.02 1.17L24.02 1.17Q12.60 1.17 5.57-5.96L5.57-5.96L5.57-5.96Q-2.64-14.36-2.64-30.96L-2.64-30.96L-2.64-30.96Q-2.64-37.99-1.22-45.80L-1.22-45.80L-1.22-45.80Q0.20-53.61 2.93-61.23L2.93-61.23L2.93-61.23Q9.18-78.42 20.02-88.96L20.02-88.96L20.02-88.96Q32.52-100.98 48.83-100.98L48.83-100.98L48.83-100.98Q56.93-100.98 60.99-98.19L60.99-98.19L60.99-98.19Q65.04-95.41 65.04-90.82L65.04-90.82L65.04-89.36L67.19-100L96.00-100L81.64-32.03L81.64-32.03Q80.76-29.10 80.76-25.59L80.76-25.59L80.76-25.59Q80.76-16.99 88.96-16.99L88.96-16.99L88.96-16.99Q94.43-16.99 98.93-22.56L98.93-22.56L98.93-22.56Q102.73-27.25 105.18-35.84L105.18-35.84L113.57-35.84L113.57-35.84Q108.20-20.61 100.59-11.72L100.59-11.72L100.59-11.72Q94.14-4.39 86.04-1.17L86.04-1.17L86.04-1.17Q80.08 1.17 73.44 1.17L73.44 1.17L73.44 1.17Q64.94 1.17 59.91-3.47L59.91-3.47L59.91-3.47Q54.88-8.11 53.81-17.19L53.81-17.19L53.81-17.19Q48.14-9.18 41.89-4.69L41.89-4.69L41.89-4.69Q33.89 1.17 24.02 1.17L24.02 1.17ZM37.01-18.16L37.01-18.16Q39.26-18.16 41.75-19.34L41.75-19.34L41.75-19.34Q44.24-20.51 46.58-22.66L46.58-22.66L46.58-22.66Q51.86-27.73 53.61-35.84L53.61-35.84L63.18-80.96L63.18-80.96Q63.18-81.93 62.74-83.25L62.74-83.25L62.74-83.25Q62.30-84.57 61.52-85.74L61.52-85.74L61.52-85.74Q59.18-88.57 54.98-88.57L54.98-88.57L54.98-88.57Q50.98-88.57 47.22-85.94L47.22-85.94L47.22-85.94Q43.46-83.30 40.14-78.61L40.14-78.61L40.14-78.61Q34.28-70.12 30.47-56.45L30.47-56.45L30.47-56.45Q28.71-50.39 27.83-44.48L27.83-44.48L27.83-44.48Q26.95-38.57 26.95-33.79L26.95-33.79L26.95-33.79Q26.95-23.83 30.66-20.31L30.66-20.31L30.66-20.31Q31.93-18.95 33.50-18.55L33.50-18.55L33.50-18.55Q35.06-18.16 37.01-18.16L37.01-18.16ZM97.56 0L118.75-100L147.56-100L145.02-87.60L145.02-87.60Q151.86-93.65 156.15-96.19L156.15-96.19L156.15-96.19Q162.79-100 169.14-100L169.14-100L169.14-100Q175.59-100 179.49-95.41L179.49-95.41L179.49-95.41Q181.25-93.36 182.13-90.67L182.13-90.67L182.13-90.67Q183.01-87.99 183.01-84.96L183.01-84.96L183.01-84.96Q183.01-82.23 182.13-79.69L182.13-79.69L182.13-79.69Q181.25-77.15 179.49-75.10L179.49-75.10L179.49-75.10Q177.54-72.95 174.76-71.68L174.76-71.68L174.76-71.68Q171.97-70.41 168.55-70.41L168.55-70.41L168.55-70.41Q165.92-70.41 164.36-71.29L164.36-71.29L164.36-71.29Q162.79-72.17 161.91-73.83L161.91-73.83L161.91-73.83Q161.13-75.49 160.84-77.05L160.84-77.05L160.84-77.05Q159.96-81.25 159.08-82.62L159.08-82.62L159.08-82.62Q158.40-83.59 156.93-83.59L156.93-83.59L156.93-83.59Q152.73-83.59 149.80-81.84L149.80-81.84L149.80-81.84Q146.88-80.08 142.38-75.98L142.38-75.98L126.37 0L97.56 0ZM211.52 50L211.52 50Q206.84 50 202.78 48.78L202.78 48.78L202.78 48.78Q198.73 47.56 195.80 45.12L195.80 45.12L195.80 45.12Q192.68 42.68 190.92 39.01L190.92 39.01L190.92 39.01Q189.16 35.35 189.16 30.57L189.16 30.57L189.16 30.57Q189.16 19.24 199.80 11.13L199.80 11.13L199.80 11.13Q207.81 5.18 221.78 0.78L221.78 0.78L224.22-9.96L224.22-9.96Q218.36-3.52 211.52-0.88L211.52-0.88L211.52-0.88Q206.25 1.17 200.20 1.17L200.20 1.17L200.20 1.17Q190.63 1.17 185.06-4.49L185.06-4.49L185.06-4.49Q178.81-10.74 178.81-22.75L178.81-22.75L178.81-22.75Q178.81-28.42 180.37-35.84L180.37-35.84L193.95-100L222.75-100L208.40-32.03L208.40-32.03Q207.81-29.59 207.81-26.95L207.81-26.95L207.81-26.95Q207.81-23.14 209.08-20.90L209.08-20.90L209.08-20.90Q210.55-18.16 213.77-18.16L213.77-18.16L213.77-18.16Q219.04-18.16 223.24-22.85L223.24-22.85L223.24-22.85Q226.86-26.86 229.39-34.57L229.39-34.57L243.36-100L272.17-100L252.34-7.23L252.34-7.23Q261.82-10.35 267.48-16.60L267.48-16.60L267.48-16.60Q273.63-23.34 277.54-35.84L277.54-35.84L285.94-35.84L285.94-35.84Q280.57-18.07 269.92-8.40L269.92-8.40L269.92-8.40Q262.11-1.37 250.59 1.56L250.59 1.56L247.56 16.02L247.56 16.02Q243.75 35.16 232.32 43.75L232.32 43.75L232.32 43.75Q224.02 50 211.52 50L211.52 50ZM206.93 34.38L206.93 34.38Q209.96 34.38 213.38 29.98L213.38 29.98L213.38 29.98Q216.70 25.68 218.55 16.60L218.55 16.60L219.73 10.84L219.73 10.84Q210.64 14.26 206.15 17.77L206.15 17.77L206.15 17.77Q200.20 22.27 200.20 27.83L200.20 27.83L200.20 27.83Q200.20 30.47 201.86 32.23L201.86 32.23L201.86 32.23Q203.71 34.38 206.93 34.38L206.93 34.38ZM301.56 1.17L301.56 1.17Q290.14 1.17 283.11-5.96L283.11-5.96L283.11-5.96Q274.90-14.36 274.90-30.96L274.90-30.96L274.90-30.96Q274.90-37.99 276.32-45.80L276.32-45.80L276.32-45.80Q277.73-53.61 280.47-61.23L280.47-61.23L280.47-61.23Q286.72-78.42 297.56-88.96L297.56-88.96L297.56-88.96Q310.06-100.98 326.37-100.98L326.37-100.98L326.37-100.98Q334.47-100.98 338.53-98.19L338.53-98.19L338.53-98.19Q342.58-95.41 342.58-90.82L342.58-90.82L342.58-89.36L344.73-100L373.54-100L359.18-32.03L359.18-32.03Q358.30-29.10 358.30-25.59L358.30-25.59L358.30-25.59Q358.30-16.99 366.50-16.99L366.50-16.99L366.50-16.99Q371.97-16.99 376.46-22.56L376.46-22.56L376.46-22.56Q380.27-27.25 382.71-35.84L382.71-35.84L391.11-35.84L391.11-35.84Q385.74-20.61 378.13-11.72L378.13-11.72L378.13-11.72Q371.68-4.39 363.57-1.17L363.57-1.17L363.57-1.17Q357.62 1.17 350.98 1.17L350.98 1.17L350.98 1.17Q342.48 1.17 337.45-3.47L337.45-3.47L337.45-3.47Q332.42-8.11 331.35-17.19L331.35-17.19L331.35-17.19Q325.68-9.18 319.43-4.69L319.43-4.69L319.43-4.69Q311.43 1.17 301.56 1.17L301.56 1.17ZM314.55-18.16L314.55-18.16Q316.80-18.16 319.29-19.34L319.29-19.34L319.29-19.34Q321.78-20.51 324.12-22.66L324.12-22.66L324.12-22.66Q329.39-27.73 331.15-35.84L331.15-35.84L340.72-80.96L340.72-80.96Q340.72-81.93 340.28-83.25L340.28-83.25L340.28-83.25Q339.84-84.57 339.06-85.74L339.06-85.74L339.06-85.74Q336.72-88.57 332.52-88.57L332.52-88.57L332.52-88.57Q328.52-88.57 324.76-85.94L324.76-85.94L324.76-85.94Q321.00-83.30 317.68-78.61L317.68-78.61L317.68-78.61Q311.82-70.12 308.01-56.45L308.01-56.45L308.01-56.45Q306.25-50.39 305.37-44.48L305.37-44.48L305.37-44.48Q304.49-38.57 304.49-33.79L304.49-33.79L304.49-33.79Q304.49-23.83 308.20-20.31L308.20-20.31L308.20-20.31Q309.47-18.95 311.04-18.55L311.04-18.55L311.04-18.55Q312.60-18.16 314.55-18.16L314.55-18.16ZM454.88 1.17L454.88 1.17Q442.48 1.17 436.52-5.86L436.52-5.86L436.52-5.86Q431.35-11.91 431.35-21.39L431.35-21.39L431.35-21.39Q431.35-25.88 432.47-31.84L432.47-31.84L432.47-31.84Q433.59-37.79 435.84-47.17L435.84-47.17L435.84-47.17Q438.09-56.74 439.21-62.45L439.21-62.45L439.21-62.45Q440.33-68.16 440.33-72.36L440.33-72.36L440.33-72.36Q440.33-82.62 433.11-82.62L433.11-82.62L433.11-82.62Q428.03-82.62 423.73-77.25L423.73-77.25L423.73-77.25Q420.12-72.66 417.48-64.16L417.48-64.16L403.91 0L375.10 0L396.29-100L425.10-100L422.95-89.65L422.95-89.65Q428.81-96.19 435.55-98.83L435.55-98.83L435.55-98.83Q440.53-100.78 446.29-100.78L446.29-100.78L446.29-100.78Q456.45-100.78 462.30-95.51L462.30-95.51L462.30-95.51Q468.55-89.75 468.55-78.22L468.55-78.22L468.55-78.22Q468.55-71.29 466.02-60.16L466.02-60.16L466.02-60.16Q465.33-56.93 463.77-50.49L463.77-50.49L463.77-50.49Q460.94-39.65 459.67-33.20L459.67-33.20L459.67-33.20Q458.89-29.10 458.89-26.56L458.89-26.56L458.89-26.56Q458.89-22.56 460.69-20.36L460.69-20.36L460.69-20.36Q462.50-18.16 466.89-18.16L466.89-18.16L466.89-18.16Q472.85-18.16 476.95-23.05L476.95-23.05L476.95-23.05Q480.08-26.76 483.69-35.84L483.69-35.84L492.09-35.84L492.09-35.84Q484.67-13.87 473.34-5.08L473.34-5.08L473.34-5.08Q465.33 1.17 454.88 1.17L454.88 1.17ZM517.09-110.84L517.09-110.84Q513.87-110.84 510.94-112.06L510.94-112.06L510.94-112.06Q508.01-113.28 505.86-115.43L505.86-115.43L505.86-115.43Q503.71-117.48 502.49-120.41L502.49-120.41L502.49-120.41Q501.27-123.34 501.27-126.56L501.27-126.56L501.27-126.56Q501.27-129.79 502.49-132.71L502.49-132.71L502.49-132.71Q503.71-135.64 505.86-137.89L505.86-137.89L505.86-137.89Q508.01-140.14 510.94-141.36L510.94-141.36L510.94-141.36Q513.87-142.58 517.09-142.58L517.09-142.58L517.09-142.58Q520.31-142.58 523.24-141.36L523.24-141.36L523.24-141.36Q526.17-140.14 528.42-137.89L528.42-137.89L528.42-137.89Q530.66-135.64 531.88-132.71L531.88-132.71L531.88-132.71Q533.11-129.79 533.11-126.56L533.11-126.56L533.11-126.56Q533.11-123.34 531.88-120.41L531.88-120.41L531.88-120.41Q530.66-117.48 528.42-115.43L528.42-115.43L528.42-115.43Q526.17-113.28 523.24-112.06L523.24-112.06L523.24-112.06Q520.31-110.84 517.09-110.84L517.09-110.84ZM503.52 1.17L503.52 1.17Q493.95 1.17 488.38-4.49L488.38-4.49L488.38-4.49Q482.13-10.74 482.13-22.75L482.13-22.75L482.13-22.75Q482.13-28.42 483.69-35.84L483.69-35.84L497.27-100L526.07-100L511.72-32.03L511.72-32.03Q510.94-29.49 510.94-25.59L510.94-25.59L510.94-25.59Q510.94-21.48 512.84-19.82L512.84-19.82L512.84-19.82Q514.75-18.16 519.04-18.16L519.04-18.16L519.04-18.16Q521.97-18.16 524.76-19.48L524.76-19.48L524.76-19.48Q527.54-20.80 529.88-23.14L529.88-23.14L529.88-23.14Q534.67-27.93 537.11-35.84L537.11-35.84L545.51-35.84L545.51-35.84Q540.14-20.70 532.03-11.72L532.03-11.72L532.03-11.72Q525.20-4.39 516.60-1.17L516.60-1.17L516.60-1.17Q510.35 1.17 503.52 1.17L503.52 1.17Z" fill="none" stroke="#fff" stroke-width="2.1"></path></g></g></g><style>text {
  font-size: 64px;
  font-family: Arial Black;
  dominant-baseline: central;
  text-anchor: middle;
}</style></svg>